<?xml version="1.0" encoding="UTF-8" standalone="no"?>
<!-- Created with Inkscape (http://www.inkscape.org/) -->

<svg
   width="270.93332mm"
   height="270.93335mm"
   viewBox="0 0 270.93332 270.93335"
   version="1.1"
   id="svg1"
   inkscape:export-filename="goodwatch-favicon-amber.svg"
   inkscape:export-xdpi="96"
   inkscape:export-ydpi="96"
   xml:space="preserve"
   sodipodi:docname="goodwatch-favicon-white.svg"
   xmlns:inkscape="http://www.inkscape.org/namespaces/inkscape"
   xmlns:sodipodi="http://sodipodi.sourceforge.net/DTD/sodipodi-0.dtd"
   xmlns="http://www.w3.org/2000/svg"
   xmlns:svg="http://www.w3.org/2000/svg"><sodipodi:namedview
     id="namedview1"
     pagecolor="#000000"
     bordercolor="#999999"
     borderopacity="1"
     inkscape:showpageshadow="2"
     inkscape:pageopacity="0"
     inkscape:pagecheckerboard="0"
     inkscape:deskcolor="#d1d1d1"
     inkscape:document-units="mm"
     showgrid="false"><inkscape:page
       x="0"
       y="0"
       width="270.93332"
       height="270.93332"
       id="page2"
       margin="0"
       bleed="0" /></sodipodi:namedview><defs
     id="defs1" /><g
     inkscape:label="Layer 1"
     inkscape:groupmode="layer"
     id="layer1"
     transform="translate(32.218058,-5.4512252)"><ellipse
       style="fill:#0d121b;fill-opacity:1;stroke-width:0;paint-order:stroke fill markers"
       id="path2"
       cx="104.0641"
       cy="140.91342"
       rx="120.53838"
       ry="121.66491" /><path
       id="path1"
       style="fill:#fdfcfc;fill-opacity:1;stroke-width:0.264583"
       d="M 103.78863,15.925004 A 124.31032,124.31032 0 0 0 -20.521614,140.23576 124.31032,124.31032 0 0 0 103.78863,264.546 124.31032,124.31032 0 0 0 228.09887,140.23576 124.31032,124.31032 0 0 0 103.78863,15.925004 Z m -2.70888,26.396839 c 7.50081,-0.02977 15.58435,0.896153 22.66063,2.634464 15.18444,3.762375 31.35578,12.805875 42.46563,23.788729 4.29948,4.217459 7.95356,8.548647 8.52506,10.144084 0.60854,1.521354 0.49475,5.016458 -0.15348,6.307625 -0.94985,1.825625 -19.89915,18.354175 -22.71696,19.798795 -1.82563,0.94986 -4.6041,1.10042 -6.04873,0.34106 -0.49477,-0.26722 -2.89143,-2.39411 -5.28856,-4.71186 -7.95337,-7.675564 -13.81406,-11.438182 -22.26221,-14.211015 -6.39233,-2.129896 -9.20756,-2.548165 -16.93075,-2.548165 -6.278561,0 -6.887105,0.07714 -11.112501,1.217497 -10.387542,2.812521 -17.692749,7.143524 -25.000541,14.782044 -7.418917,7.712609 -12.062168,16.796009 -13.964522,27.130639 -0.949854,5.09058 -0.950021,15.7319 -0.03721,20.13986 2.397125,11.36121 7.913895,21.431 16.020728,29.18065 4.831291,4.63814 12.366522,9.31089 18.150313,11.32437 5.289021,1.82562 8.980016,2.47099 15.409403,2.69854 7.38187,0.26458 11.72089,-0.34119 18.57095,-2.58485 11.26331,-3.68565 20.85183,-11.32383 27.47171,-21.886 2.05581,-3.26761 2.47394,-5.01662 1.40767,-6.08025 -0.64558,-0.64558 -1.52162,-0.79917 -7.1546,-0.98702 -12.78996,0 -17.08129,0.11927 -28.0324,0.14573 l 20.10317,-13.52321 0.0475,-0.0341 c 1.70391,-1.19326 2.70679,-3.21195 2.68562,-5.40535 -0.0212,-2.16164 -1.04512,-4.12767 -2.73316,-5.26273 l -20.20911,-13.5971 c 13.8086,0.15346 21.92356,0.55035 39.7459,0.55035 29.18618,0.1905 30.7075,0.22785 31.77377,0.91312 1.82562,1.14035 2.89185,2.20393 3.72794,3.83905 l 0.83612,1.51877 0.0765,45.21688 c 0.0767,24.88936 -0.0368,46.96649 -0.22737,49.13343 -0.26723,3.42106 -0.45781,4.10378 -1.40767,5.50871 -0.64822,0.91282 -1.86515,1.93901 -3.0055,2.50786 l -1.86552,0.9896 -12.55686,0.11369 c -10.95904,0.11377 -12.74778,0.0372 -14.19241,-0.49455 -3.61685,-1.3679 -5.40552,-4.02682 -5.44256,-7.94266 0,-2.43152 -0.68505,-3.64629 -2.0159,-3.64629 -0.381,0 -2.13277,0.75944 -3.80494,1.67225 -6.58283,3.57188 -16.93339,7.06701 -26.52189,8.92968 C 95.20244,234.4162 70.813565,229.0587 49.771253,215.03843 29.070253,201.20601 14.951919,179.05223 10.311129,153.02516 9.2448586,146.90535 8.9407147,132.08587 9.7767947,124.94212 11.986065,105.90535 19.328068,89.26339 32.075692,74.48112 42.158963,62.778599 54.869361,53.999765 70.051152,48.263599 c 6.773334,-2.547938 16.970602,-4.94006 23.780977,-5.588289 2.311797,-0.227542 4.747349,-0.343545 7.247621,-0.353467 z m -13.73508,69.227297 14.14177,9.51467 28.04584,18.86965 c 0.0212,0.082 0.0162,0.21169 -0.0129,0.28577 l -27.6071,18.57406 -14.56759,9.79992 z" /></g></svg>
